<?xml version="1.0" standalone="no"?>
<!DOCTYPE svg PUBLIC "-//W3C//DTD SVG 20010904//EN"
 "http://www.w3.org/TR/2001/REC-SVG-20010904/DTD/svg10.dtd">
<svg version="1.0" xmlns="http://www.w3.org/2000/svg"
 width="827.000000pt" height="827.000000pt" viewBox="0 0 827.000000 827.000000"
 preserveAspectRatio="xMidYMid meet">
<metadata>
Created by potrace 1.14, written by Peter Selinger 2001-2017
</metadata>
<g transform="translate(0.000000,827.000000) scale(0.100000,-0.100000)"
fill="#000000" stroke="none">
<path d="M5594 6971 c-216 -72 -330 -278 -277 -501 24 -100 117 -210 222 -262
62 -30 73 -33 171 -33 94 0 111 3 164 28 224 104 311 350 201 567 -43 85 -131
161 -225 196 -65 23 -193 26 -256 5z"/>
<path d="M4243 6403 c-114 -21 -183 -75 -329 -258 -43 -55 -82 -102 -85 -105
-12 -11 -297 -366 -314 -393 -22 -34 -29 -127 -12 -166 48 -113 168 -165 275
-117 l41 18 128 -87 c70 -49 137 -95 149 -104 19 -14 21 -23 16 -106 -7 -142
33 -264 137 -411 30 -43 119 -142 281 -314 64 -68 257 -275 270 -290 8 -10 58
-63 110 -120 52 -56 106 -123 119 -149 l24 -46 2 -485 c1 -319 5 -494 12 -511
31 -74 112 -129 188 -129 83 0 148 40 188 115 21 39 21 51 21 525 0 267 -3
505 -6 530 -13 85 -69 221 -120 284 -13 16 -44 52 -70 80 -25 28 -55 60 -65
72 -10 12 -60 67 -111 122 -52 56 -108 120 -126 144 -29 39 -66 107 -66 122 0
4 28 -13 62 -36 34 -24 94 -65 133 -93 40 -27 104 -72 143 -98 43 -30 74 -59
80 -76 26 -73 107 -127 197 -130 16 -1 182 -110 309 -204 19 -13 19 -15 -3
-63 -33 -68 -31 -138 3 -209 15 -30 40 -63 55 -74 l28 -20 27 32 c54 62 294
303 362 362 38 33 87 76 108 96 l40 36 -23 13 c-13 6 -43 27 -67 45 -112 86
-245 86 -337 1 -15 -14 -31 -26 -34 -26 -7 0 -141 89 -159 105 -6 6 -34 26
-62 45 l-51 35 -3 705 -3 705 -24 55 c-44 100 -112 193 -215 295 -55 55 -128
117 -161 136 -124 73 -280 129 -401 145 -94 12 -591 10 -661 -3z m410 -415
c-6 -7 -103 -139 -218 -293 -114 -154 -211 -281 -215 -283 -16 -6 -241 159
-233 171 4 7 57 73 117 147 61 75 135 166 165 203 l54 67 170 0 c134 0 167 -3
160 -12z m647 -993 l0 -345 -102 73 c-57 39 -129 90 -161 111 -37 26 -56 45
-52 54 5 14 308 451 313 452 1 0 2 -155 2 -345z"/>
<path d="M4070 4635 c-1 -5 -1 -196 -2 -424 0 -266 -4 -425 -11 -445 -10 -30
-51 -99 -72 -122 -5 -6 -21 -26 -35 -44 -25 -33 -261 -339 -306 -395 -237
-302 -239 -305 -232 -390 15 -174 227 -249 347 -122 22 23 60 69 85 102 26 33
57 74 70 90 14 17 70 89 125 160 55 72 105 135 110 141 54 64 237 317 256 354
61 120 68 158 72 402 l4 226 -26 27 c-95 103 -234 252 -255 274 -14 14 -39 44
-55 66 -17 22 -33 42 -36 45 -3 3 -13 19 -22 35 -9 17 -17 26 -17 20z"/>
<path d="M6831 4090 c-198 -72 -587 -439 -1059 -998 -62 -73 -69 -87 -65 -115
23 -148 338 -273 823 -326 625 -68 1283 24 1494 210 73 64 97 143 54 173 -12
9 -18 16 -13 16 6 0 6 3 0 8 -5 4 -32 34 -59 67 -28 33 -68 80 -90 105 -23 25
-58 66 -79 90 -234 274 -557 586 -723 699 -125 84 -197 102 -283 71z"/>
<path d="M450 2757 c-106 -31 -172 -79 -215 -158 -25 -46 -29 -65 -29 -134 -1
-60 4 -90 19 -120 40 -83 146 -161 282 -209 21 -7 54 -22 73 -32 105 -58 132
-96 134 -188 1 -78 -26 -123 -97 -162 -84 -45 -243 -37 -355 19 l-48 24 -18
-64 c-10 -35 -17 -65 -15 -66 2 -1 14 -8 27 -15 39 -22 185 -52 253 -52 248 0
400 119 406 319 1 59 -3 84 -23 130 -43 96 -100 143 -259 210 -184 77 -242
136 -230 231 19 151 171 193 411 115 19 -6 24 0 39 50 11 33 14 59 9 65 -42
39 -274 63 -364 37z"/>
<path d="M5874 2740 c-31 -12 -54 -66 -43 -103 15 -54 43 -71 107 -68 37 2 72
44 72 88 -1 72 -65 112 -136 83z"/>
<path d="M1340 2431 c-188 -59 -301 -235 -287 -446 12 -186 108 -317 269 -366
59 -18 86 -21 172 -16 55 3 123 13 149 22 42 15 48 21 43 39 -3 11 -9 38 -12
59 -5 30 -10 37 -23 31 -42 -18 -120 -34 -166 -34 -81 0 -143 26 -201 86 -61
62 -79 115 -78 229 2 124 52 215 147 266 35 20 57 23 137 23 66 0 106 -5 132
-16 l37 -16 15 46 c9 25 16 51 16 59 0 44 -242 68 -350 34z"/>
<path d="M2183 2431 c-47 -22 -97 -70 -124 -121 l-18 -35 -1 78 c0 44 -4 77
-10 78 -5 0 -23 1 -40 1 -16 0 -41 -1 -54 -1 l-24 -1 1 -405 1 -405 73 0 c69
0 73 1 73 23 0 12 1 128 3 257 2 213 4 239 23 280 40 86 117 136 197 128 l32
-3 0 70 0 70 -45 3 c-28 1 -61 -5 -87 -17z"/>
<path d="M2680 2447 c-3 -3 -22 -8 -43 -11 -21 -3 -59 -16 -85 -29 -50 -24
-55 -39 -31 -98 l10 -26 62 25 c80 33 193 37 250 8 42 -21 72 -69 80 -129 6
-45 9 -44 -102 -51 -46 -4 -87 -8 -90 -11 -4 -2 -18 -6 -32 -9 -69 -13 -149
-54 -192 -98 -57 -58 -81 -173 -55 -260 18 -60 89 -130 151 -147 102 -29 237
5 303 75 30 31 34 33 35 15 1 -12 3 -25 4 -31 1 -5 3 -19 4 -30 1 -18 8 -20
72 -20 l71 0 -8 33 c-4 17 -8 147 -9 287 -2 281 -10 333 -63 406 -16 21 -53
52 -83 69 -47 25 -67 30 -149 33 -52 2 -97 2 -100 -1z m248 -482 c4 -94 -13
-150 -59 -195 -82 -80 -219 -75 -261 10 -40 80 -9 173 71 212 51 25 141 44
204 43 l42 0 3 -70z"/>
<path d="M3675 2439 c-80 -29 -129 -63 -168 -119 -15 -22 -17 -23 -18 -5 -2
64 -7 106 -12 111 -8 8 -116 9 -123 1 -4 -3 -5 -55 -4 -114 1 -59 2 -314 3
-565 l0 -458 36 -1 c20 0 51 -1 69 -2 19 -1 36 2 39 7 3 5 5 102 4 217 l-1
208 39 -39 c118 -114 335 -104 461 22 160 160 162 494 4 653 -66 65 -123 89
-219 92 -44 1 -93 -2 -110 -8z m173 -143 c139 -87 164 -365 47 -504 -55 -66
-168 -91 -253 -56 -53 21 -116 91 -130 144 -15 62 -13 218 4 279 18 62 91 144
145 160 56 17 141 7 187 -23z"/>
<path d="M4554 2434 c-101 -31 -195 -127 -236 -241 -26 -74 -35 -221 -18 -294
29 -127 109 -224 221 -270 77 -32 263 -36 367 -7 l73 20 -6 44 c-9 67 -14 75
-36 63 -52 -27 -195 -40 -282 -25 -107 18 -190 113 -199 226 l-3 45 288 3 287
2 0 75 c0 169 -83 307 -215 357 -53 20 -177 21 -241 2z m207 -117 c34 -18 50
-36 71 -78 31 -62 41 -114 25 -126 -16 -11 -405 -9 -417 3 -14 14 34 122 71
160 45 46 85 64 150 64 40 0 69 -7 100 -23z"/>
<path d="M5523 2437 c-43 -16 -112 -82 -129 -123 -8 -19 -16 -34 -18 -34 -2 0
-4 32 -5 72 -1 40 -4 74 -6 77 -3 2 -30 4 -61 3 -54 0 -80 -14 -67 -35 3 -5 6
-181 6 -392 l1 -383 50 -4 c104 -6 94 -32 98 260 3 239 5 260 25 304 38 83 91
120 178 124 l50 2 0 68 0 69 -45 2 c-25 1 -59 -3 -77 -10z"/>
<path d="M6605 2441 c-68 -18 -175 -94 -175 -123 0 -5 -4 -7 -8 -4 -5 3 -10
29 -11 58 -1 28 -3 53 -4 54 -4 4 -51 6 -94 5 -40 -1 -42 -2 -39 -28 2 -16 4
-198 5 -405 l1 -378 75 0 75 0 1 253 c0 138 2 261 4 271 10 53 19 71 57 112
86 93 230 91 295 -4 36 -54 43 -119 43 -382 l0 -250 76 0 75 0 -4 293 c-2 160
-6 302 -10 314 -23 87 -79 158 -151 195 -45 23 -158 33 -211 19z"/>
<path d="M7453 2426 c-114 -43 -189 -118 -235 -237 -27 -70 -33 -227 -11 -302
50 -172 176 -275 346 -285 188 -11 341 82 408 249 27 68 37 214 19 290 -29
127 -108 227 -214 275 -88 40 -225 44 -313 10z m239 -112 c89 -45 140 -148
141 -284 2 -105 -20 -172 -73 -233 -49 -55 -99 -80 -167 -82 -135 -5 -237 112
-248 284 -8 128 33 233 118 300 51 40 164 48 229 15z"/>
<path d="M5857 2432 c-16 -3 -17 -37 -17 -408 l0 -404 75 0 75 0 0 408 0 407
-58 0 c-32 0 -66 -1 -75 -3z"/>
</g>
</svg>
